# AST/ASF file generated using VICON BodyLanguage
# -----------------------------------------------
:version 1.10
:name VICON
:units
  mass 1.0
  length 0.45
  angle deg
:documentation
   .ast/.asf automatically generated from VICON data using
   VICON BodyBuilder and BodyLanguage model FoxedUp or BRILLIANT.MOD
:root
   order TX TY TZ RX RY RZ
   axis XYZ
   position 0 0 0  
   orientation 0 -0 0 
:bonedata
  begin
     id 1 
     name lhipjoint
     direction 0.500677 -0.737119 0.453848 
     length 2.34727 
     axis 0 -0 0  XYZ
  end
  begin
     id 2 
     name lfemur
     direction 0.34202 -0.939693 0  
     length 7.53653  
     axis 0 -0 20  XYZ
    dof rx ry rz
    limits (-160.0 20.0)
           (-70.0 70.0)
           (-60.0 70.0)
  end
  begin
     id 3 
     name ltibia
     direction 0.34202 -0.939693 0   
     length 6.85572   
     axis 0 -0 20   XYZ
    dof rx
    limits (-10.0 170.0)
  end
  begin
     id 4 
     name lfoot
     direction 0.155313 -0.426718 0.890949   
     length 2.18324   
     axis -90 -1.13533e-015 20   XYZ
    dof rx rz
    limits (-45.0 90.0)
           (-70.0 20.0)
  end
  begin
     id 5 
     name ltoes
     direction 1.53474e-011 -4.21647e-011 1   
     length 1.06748   
     axis -90 -1.13533e-015 20   XYZ
    dof rx
    limits (-90.0 20.0)
  end
  begin
     id 6 
     name rhipjoint
     direction -0.632471 -0.659587 0.406111   
     length 2.62319  
     axis 0 -0 0  XYZ 
  end
  begin
     id 7 
     name rfemur
     direction -0.34202 -0.939693 0   
     length 7.21735   
     axis 0 -0 -20   XYZ
    dof rx ry rz
    limits (-160.0 20.0)
           (-70.0 70.0)
           (-70.0 60.0)
  end
  begin
     id 8 
     name rtibia
     direction -0.34202 -0.939693 0   
     length 7.02558   
     axis 0 -0 -20   XYZ
    dof rx
    limits (-10.0 170.0)
 end
 begin
     id 9 
     name rfoot
     direction -0.16057 -0.441164 0.882945   
     length 2.10014  
     axis -90 1.13533e-015 -20   XYZ
    dof rx rz
    limits (-45.0 90.0)
           (-20.0 70.0)
  end
  begin
     id 10 
     name rtoes
     direction -1.53553e-011 -4.2192e-011 1   
     length 1.02554   
     axis -90 1.13533e-015 -20   XYZ
    dof rx
    limits (-90.0 20.0)
  end
  begin
     id 11 
     name lowerback
     direction 0.0401429 0.998861 -0.0258085   
     length 1.80848   
     axis 0 -0 0   XYZ
    dof rx ry rz
    limits (-20.0 45.0)
           (-30.0 30.0)
           (-30.0 30.0)
  end
  begin
     id 12 
     name upperback
     direction -0.0130978 0.999914 -0.000352645   
     length 1.8116   
     axis 0 -0 0   XYZ
    dof rx ry rz
    limits (-20.0 45.0)
           (-30.0 30.0)
           (-30.0 30.0)
  end
  begin
     id 13 
     name thorax
     direction -0.0300198 0.999453 0.0138573   
     length 1.81778   
     axis 0 -0 0   XYZ
    dof rx ry rz
    limits (-20.0 45.0)
           (-30.0 30.0)
           (-30.0 30.0)
  end
  begin
     id 14 
     name lowerneck
     direction -0.0401726 0.999191 -0.00173647   
     length 2.10594   
     axis 0 -0 0   XYZ
    dof rx ry rz
    limits (-20.0 45.0)
           (-30.0 30.0)
           (-30.0 30.0)
  end
  begin
     id 15 
     name upperneck
     direction 0.0119835 0.998501 0.0534085   
     length 2.07325   
     axis 0 -0 0   XYZ
    dof rx ry rz
    limits (-20.0 45.0)
           (-30.0 30.0)
           (-30.0 30.0)
  end
  begin
     id 16
     name head
     direction 0.00628309 0.999826 0.0175921  
     length 2.15096  
     axis 0 -0 0   XYZ
    dof rx ry rz
    limits (-20.0 45.0)
           (-30.0 30.0)
           (-30.0 30.0)
  end
  begin
     id 17 
     name lclavicle
     direction 0.895501 0.429681 -0.115981  
     length 4.18092  
     axis 0 -0 0   XYZ
    dof ry rz
    limits (-20.0 10.0)
           (0.0 20.0)
  end
  begin
     id 18 
     name lhumerus
     direction 1 -4.48961e-011 -3.38433e-028   
     length 5.77237   
     axis 180 -30 -90   XYZ
    dof rx ry rz
    limits (-60.0 90.0)
           (-90.0 90.0)
           (-90.0 90.0)
  end
  begin
     id 19
     name lradius
     direction 1 -4.4901e-011 1.11983e-026   
     length 2.91878   
     axis 180 -30 -90   XYZ
    dof rx
    limits (-10.0 170.0)
  end
  begin
     id 20
     name lwrist
     direction 1 -4.48934e-011 1.88176e-026   
     length 1.45939   
     axis -1.23311e-014 90 90   XYZ
    dof ry
    limits (-180.0 0.0)
 end
  begin
     id 21 
     name lhand
     direction 1 -4.4895e-011 3.76352e-026   
     length 1.06566   
     axis -2.40147e-014 90 90   XYZ
    dof rx rz
    limits (-90.0 90.0)
           (-45.0 45.0)
  end
  begin
     id 22 
     name lfingers
     direction 1 -4.49005e-011 7.52705e-026   
     length 0.859162   
     axis -4.80295e-014 90 90   XYZ
    dof rx
    limits (0.0 90.0)
  end
  begin
     id 23
     name lthumb
     direction 0.707107 -6.34885e-011 0.707107   
     length 1.23359   
     axis -90 45 -9.86935e-015   XYZ
    dof rx rz
    limits (-45.0 45.0)
           (-45.0 45.0)
  end
  begin
     id 24 
     name rclavicle
     direction -0.91006 0.40451 -0.0903492   
     length 4.23293  
     axis 0 -0 0   XYZ 
    dof ry rz
    limits (-10.0 20.0)
           (-20.0 0.0)
  end
  begin
     id 25 
     name rhumerus
     direction -1 -4.4897e-011 1.7415e-027  
     length 5.49854   
     axis 180 30 90   XYZ
    dof rx ry rz
    limits (-90.0 60.0)
           (-90.0 90.0)
           (-90.0 90.0)
  end
  begin
     id 26 
     name rradius
     direction -1 -4.48963e-011 1.21259e-026   
     length 3.1186   
     axis 180 30 90   XYZ
    dof rx
    limits (-10.0 170.0)
  end
  begin
     id 27 
     name rwrist
     direction -1 -4.48967e-011 1.88176e-026   
     length 1.5593   
     axis -1.23311e-014 -90 -90   XYZ
    dof ry
    limits (-180.0 0.0)
  end
  begin
     id 28
     name rhand
     direction -1 -4.4895e-011 3.76352e-026   
     length 0.71207   
     axis -2.40147e-014 -90 -90   XYZ
    dof rx rz
    limits (-90.0 90.0)
           (-45.0 45.0)
  end
  begin
     id 29
     name rfingers
     direction -1 -4.49005e-011 7.52705e-026   
     length 0.574089   
     axis -4.80295e-014 -90 -90   XYZ
    dof rx
    limits (0.0 90.0)
  end
  begin
     id 30
     name rthumb
     direction -0.707107 -6.34982e-011 0.707107   
     length 0.824281   
     axis -90 -45 9.86935e-015   XYZ
    dof rx rz
    limits (-45.0 45.0)
           (-45.0 45.0)
  end
:hierarchy
  begin
    root lhipjoint rhipjoint lowerback
    lhipjoint lfemur
    lfemur ltibia
    ltibia lfoot
    lfoot ltoes
    rhipjoint rfemur
    rfemur rtibia
    rtibia rfoot
    rfoot rtoes
    lowerback upperback
    upperback thorax
    thorax lowerneck lclavicle rclavicle
    lowerneck upperneck
    upperneck head
    lclavicle lhumerus
    lhumerus lradius
    lradius lwrist
    lwrist lhand lthumb
    lhand lfingers
    rclavicle rhumerus
    rhumerus rradius
    rradius rwrist
    rwrist rhand rthumb
    rhand rfingers
  end

#!OML:ASF C:\ViconDB\ViconDB\414\Spring2016\042216\male.ASF
:FULLY-SPECIFIED
:DEGREES
33
root -27.6279 17.2415 11.4878 -176.372 84.2595 182.771
lowerback -1.92846 -1.46257 4.68209
upperback -1.08618 -2.01588 -0.857898
thorax -0.229174 -1.03199 -3.53848
lowerneck -1.94996 8.67627 0.276128
upperneck 0.0531281 11.6929 -6.02807
head 0.739771 5.83054 -1.73915
rclavicle 2.07454e-014 -1.21321e-014
rhumerus -30.0223 -3.17621 -94.7223
rradius 25.9768
rwrist 31.9114
rhand 14.0048 -20.3535
rfingers 7.12502
rthumb 38.914 -45.8981
lclavicle 2.07454e-014 -1.21321e-014
lhumerus -35.8184 13.9892 87.1014
lradius 31.0197
lwrist -16.0858
lhand -10.2387 15.543
lfingers 7.12502
lthumb 15.7537 44.9219
rfemur 2.25181 15.8853 21.6496
rtibia 20.7937
rfoot -24.9264 -19.267
rtoes -9.64951
lfemur -7.17418 -1.59292 -21.4595
ltibia 26.1378
lfoot -24.4902 13.7134
ltoes -10.0617
34
root -27.6314 17.2412 11.4856 -176.662 84.2657 182.515
lowerback -1.88751 -1.50643 4.60176
upperback -1.05417 -2.07218 -0.85129
thorax -0.221305 -1.05909 -3.48639
lowerneck -2.059 8.75326 0.267036
upperneck 0.0561892 11.7958 -5.97635
head 0.758219 5.88002 -1.71393
rclavicle -1.60002e-014 4.65902e-015
rhumerus -29.9447 -3.32546 -94.6893
rradius 25.8421
rwrist 32.274
rhand 13.947 -20.2662
rfingers 7.12502
rthumb 38.8595 -45.8263
lclavicle -1.60002e-014 4.65902e-015
lhumerus -35.7391 13.944 87.1802
lradius 31.0665
lwrist -15.811
lhand -10.247 15.598
lfingers 7.12502
lthumb 15.7457 44.9775
rfemur 2.24292 15.5607 21.5375
rtibia 20.793
rfoot -24.8625 -18.9817
rtoes -9.6997
lfemur -7.13746 -1.57669 -21.5007
ltibia 26.1332
lfoot -24.5011 13.7194
ltoes -10.21
35
root -27.6369 17.2394 11.4839 -176.44 84.2627 182.747
lowerback -1.87793 -1.50084 4.60456
upperback -1.03751 -2.06482 -0.846459
thorax -0.208745 -1.05486 -3.48292
lowerneck -2.07592 8.75439 0.37682
upperneck 0.0274631 11.7972 -6.10658
head 0.768132 5.8807 -1.77176
rclavicle 3.70365e-014 4.87022e-015
rhumerus -29.9055 -3.4932 -94.6444
rradius 25.7753
rwrist 32.41
rhand 13.8805 -20.1604
rfingers 7.12502
rthumb 38.7969 -45.7384
lclavicle 3.70365e-014 4.87022e-015
lhumerus -35.6772 13.8688 87.277
lradius 31.0871
lwrist -15.6836
lhand -10.1876 15.6037
lfingers 7.12502
lthumb 15.803 44.9787
rfemur 2.22509 15.5323 21.5482
rtibia 20.8062
rfoot -24.8364 -18.9345
rtoes -9.53665
lfemur -7.14639 -1.50643 -21.4796
ltibia 26.1245
lfoot -24.5041 13.682
ltoes -10.2536
36
root -27.6414 17.2401 11.4821 -176.212 84.2722 182.969
lowerback -1.89088 -1.49533 4.53092
upperback -1.02391 -2.05726 -0.764725
thorax -0.180958 -1.04944 -3.35781
lowerneck -2.144 8.71339 0.490219
upperneck 0.123653 11.7573 -6.42003
head 0.837632 5.85729 -1.8828
rclavicle 3.23724e-015 -6.4605e-016
rhumerus -29.9358 -2.98529 -94.6767
rradius 25.8368
rwrist 31.9388
rhand 13.9058 -20.1743
rfingers 7.12502
rthumb 38.8207 -45.7455
lclavicle 3.23724e-015 -6.4605e-016
lhumerus -35.6178 13.842 87.5015
lradius 31.1318
lwrist -15.4993
lhand -10.2017 15.6621
lfingers 7.12502
lthumb 15.7894 45.0382
rfemur 2.20349 15.5988 21.573
rtibia 20.8061
rfoot -24.7779 -18.9784
rtoes -9.34594
lfemur -7.16551 -1.55404 -21.4631
ltibia 26.1298
lfoot -24.4949 13.7113
ltoes -10.2172
37
root -27.6462 17.2411 11.4787 -176.194 84.2548 182.979
lowerback -1.89821 -1.4923 4.55131
upperback -1.02632 -2.05382 -0.789791
thorax -0.180721 -1.04796 -3.39526
lowerneck -2.13997 8.70014 0.566016
upperneck 0.128192 11.7371 -6.42022
head 0.842514 5.8469 -1.8957
rclavicle -4.21719e-015 -5.97596e-015
rhumerus -29.919 -3.34376 -94.5966
rradius 25.7277
rwrist 32.3424
rhand 14.0581 -19.9446
rfingers 7.12502
rthumb 38.9643 -45.4748
lclavicle -4.21719e-015 -5.97596e-015
lhumerus -35.59 13.7308 87.5537
lradius 31.1343
lwrist -15.3631
lhand -10.2188 15.6069
lfingers 7.12502
lthumb 15.7729 44.9842
rfemur 2.17557 15.583 21.551
rtibia 20.8066
rfoot -24.8291 -19.0012
rtoes -9.57522
lfemur -7.19687 -1.56115 -21.4736
ltibia 26.131
lfoot -24.4907 13.6944
ltoes -10.2663
38
root -27.6517 17.2429 11.4775 -175.847 84.2823 183.329
lowerback -1.86046 -1.4969 4.5348
upperback -1.03614 -2.05764 -0.75338
thorax -0.210343 -1.05051 -3.34712
lowerneck -2.11183 8.78673 0.216519
upperneck -0.00458357 11.8412 -6.01433
head 0.748886 5.9034 -1.71559
rclavicle 1.807e-014 -1.16041e-014
rhumerus -29.9392 -3.269 -94.588
rradius 25.6955
rwrist 32.3428
rhand 13.8954 -19.5729
rfingers 7.12502
rthumb 38.8109 -45.1468
lclavicle 1.807e-014 -1.16041e-014
lhumerus -35.5742 13.659 87.6547
lradius 31.1508
lwrist -15.2332
lhand -10.2815 15.6001
lfingers 7.12502
lthumb 15.7125 44.9822
rfemur 2.16562 15.5931 21.5794
rtibia 20.7804
rfoot -24.5182 -19.0692
rtoes -10.0216
lfemur -7.24208 -1.4107 -21.4314
ltibia 26.1537
lfoot -24.5166 13.5854
ltoes -10.1206
39
root -27.6548 17.242 11.4741 -177.142 84.2867 182.052
lowerback -1.85574 -1.50244 4.3903
upperback -1.02611 -2.06293 -0.770512
thorax -0.198429 -1.05213 -3.28374
lowerneck -2.13416 8.78675 0.113132
upperneck 0.0289676 11.8419 -5.88238
head 0.747395 5.90307 -1.65633
rclavicle -1.9265e-015 2.48481e-016
rhumerus -30.0016 -2.99797 -94.6307
rradius 25.7498
rwrist 32.0985
rhand 14.0054 -19.479
rfingers 7.12502
rthumb 38.9146 -45.0234
lclavicle -1.9265e-015 2.48481e-016
lhumerus -35.5392 13.6394 87.7431
lradius 31.1175
lwrist -15.2196
lhand -10.2772 15.4528
lfingers 7.12502
lthumb 15.7167 44.8345
rfemur 2.19143 15.5523 21.4151
rtibia 20.7718
rfoot -24.5276 -19.0081
rtoes -10.0144
lfemur -7.22134 -1.49379 -21.5985
ltibia 26.161
lfoot -24.5111 13.6595
ltoes -10.0987
40
root -27.6614 17.2421 11.4711 -176.179 84.2551 182.989
lowerback -1.85925 -1.49593 4.51301
upperback -1.03924 -2.05589 -0.767336
thorax -0.213773 -1.04972 -3.34917
lowerneck -2.11822 8.76119 0.216741
upperneck 0.0120389 11.8054 -5.94547
head 0.749236 5.88508 -1.69438
rclavicle 8.35517e-016 -9.19379e-016
rhumerus -29.972 -3.33805 -94.5441
rradius 25.648
rwrist 32.3738
rhand 14.0574 -20.0557
rfingers 7.12502
rthumb 38.9637 -45.5861
lclavicle 8.35517e-016 -9.19379e-016
lhumerus -35.5115 13.5296 87.8041
lradius 31.1117
lwrist -15.1563
lhand -10.2844 15.3676
lfingers 7.12502
lthumb 15.7098 44.7499
rfemur 2.12106 15.537 21.4952
rtibia 20.7915
rfoot -24.792 -18.9859
rtoes -9.83123
lfemur -7.27823 -1.56069 -21.5054
ltibia 26.1496
lfoot -24.4512 13.7032
ltoes -10.2144
41
root -27.6683 17.2408 11.4704 -175.824 84.249 183.345
lowerback -1.84662 -1.49768 4.55229
upperback -1.03383 -2.05839 -0.769217
thorax -0.217035 -1.05119 -3.3729
lowerneck -2.11925 8.69451 0.51097
upperneck 0.072688 11.7239 -6.31781
head 0.810367 5.84204 -1.85757
rclavicle 1.04665e-014 2.98177e-015
rhumerus -29.9684 -3.43077 -94.5097
rradius 25.6374
rwrist 32.4978
rhand 13.9974 -19.4563
rfingers 7.12502
rthumb 38.9071 -45.0028
lclavicle 1.04665e-014 2.98177e-015
lhumerus -35.4619 13.5047 87.8333
lradius 31.1466
lwrist -14.9573
lhand -10.1779 15.4003
lfingers 7.12502
lthumb 15.8123 44.7745
rfemur 2.09547 15.5878 21.5393
rtibia 20.8109
rfoot -24.7824 -19.0161
rtoes -9.28158
lfemur -7.29236 -1.55587 -21.4746
ltibia 26.1359
lfoot -24.4409 13.7236
ltoes -10.2696
42
root -27.6756 17.2438 11.4688 -175.41 84.273 183.773
lowerback -1.77635 -1.49838 4.54452
upperback -1.04416 -2.05557 -0.709497
thorax -0.264234 -1.05079 -3.30457
lowerneck -2.10674 8.68634 0.531819
upperneck 0.0720666 11.7174 -6.44971
head 0.818364 5.83907 -1.90293
rclavicle 2.89558e-015 -1.11816e-015
rhumerus -29.9794 -3.40265 -94.4217
rradius 25.6255
rwrist 32.5156
rhand 13.9497 -19.4141
rfingers 7.12502
rthumb 38.8621 -44.9735
lclavicle 2.89558e-015 -1.11816e-015
lhumerus -35.4285 13.5731 87.9271
lradius 31.1264
lwrist -14.9876
lhand -10.1292 15.3229
lfingers 7.12502
lthumb 15.8592 44.6934
rfemur 2.07543 15.5176 21.5635
rtibia 20.8072
rfoot -24.7147 -19.0173
rtoes -9.61144
lfemur -7.302 -1.53434 -21.4372
ltibia 26.1383
lfoot -24.4383 13.7311
ltoes -10.4597
43
root -27.6798 17.2459 11.4644 -175.654 84.2597 183.535
lowerback -1.75406 -1.50308 4.55239
upperback -1.05204 -2.06072 -0.72701
thorax -0.286255 -1.05416 -3.32626
lowerneck -2.09924 8.68303 0.522155
upperneck 0.0720154 11.7119 -6.41675
head 0.813966 5.83647 -1.89156
rclavicle 6.46283e-015 2.60905e-015
rhumerus -30.0057 -3.48827 -94.3859
rradius 25.6094
rwrist 32.6498
rhand 13.9591 -19.4512
rfingers 7.12502
rthumb 38.871 -45.0081
lclavicle 6.46283e-015 2.60905e-015
lhumerus -35.4929 13.5563 87.9062
lradius 31.0438
lwrist -15.2766
lhand -10.1795 14.8184
lfingers 7.12502
lthumb 15.8108 44.1928
rfemur 2.06385 15.409 21.4974
rtibia 20.8044
rfoot -24.6881 -18.9621
rtoes -9.61667
lfemur -7.31392 -1.47197 -21.4801
ltibia 26.1417
lfoot -24.4342 13.6697
ltoes -10.4957
44
root -27.6853 17.243 11.4623 -175.863 84.2611 183.313
lowerback -1.74927 -1.50599 4.55197
upperback -1.05749 -2.06426 -0.745825
thorax -0.295567 -1.05634 -3.3452
lowerneck -2.10038 8.6854 0.534788
upperneck 0.0335753 11.7136 -6.44631
head 0.804968 5.83807 -1.90373
rclavicle 3.07402e-014 4.5472e-015
rhumerus -29.9926 -3.47664 -94.388
rradius 25.5656
rwrist 32.6831
rhand 14.0338 -19.9493
rfingers 7.12502
rthumb 38.9414 -45.4861
lclavicle 3.07402e-014 4.5472e-015
lhumerus -35.4777 13.3743 88.03
lradius 31.1552
lwrist -15.1213
lhand -10.172 15.1291
lfingers 7.12502
lthumb 15.818 44.5028
rfemur 2.04867 15.5183 21.46
rtibia 20.7681
rfoot -24.7333 -18.93
rtoes -9.19019
lfemur -7.35611 -1.52026 -21.5082
ltibia 26.1714
lfoot -24.4659 13.6772
ltoes -10.406
45
root -27.6904 17.2438 11.4599 -175.784 84.2515 183.375
lowerback -1.76858 -1.51637 4.57051
upperback -1.06535 -2.07902 -0.752631
thorax -0.295153 -1.06394 -3.36319
lowerneck -2.09743 8.70997 0.516572
upperneck 0.052374 11.7457 -6.387
head 0.806268 5.85379 -1.88112
rclavicle -3.56477e-014 1.13059e-014
rhumerus -29.99 -3.4295 -94.3959
rradius 25.513
rwrist 32.7556
rhand 13.9982 -19.8282
rfingers 7.12502
rthumb 38.9078 -45.3746
lclavicle -3.56477e-014 1.13059e-014
lhumerus -35.4982 13.3269 88.054
lradius 31.2061
lwrist -15.0942
lhand -9.98951 15.0799
lfingers 7.12502
lthumb 15.9937 44.4397
rfemur 2.04032 15.4948 21.4423
rtibia 20.7071
rfoot -24.6851 -18.9149
rtoes -9.30497
lfemur -7.42713 -1.44221 -21.5058
ltibia 26.2187
lfoot -24.5178 13.5838
ltoes -10.3104
46
root -27.6958 17.2459 11.4588 -175.561 84.241 183.582
lowerback -1.7998 -1.5264 4.57498
upperback -1.05543 -2.09414 -0.728828
thorax -0.268097 -1.07058 -3.34244
lowerneck -2.16266 8.69096 0.446075
upperneck 0.116151 11.7225 -6.26972
head 0.823829 5.83992 -1.82892
rclavicle -1.78044e-014 6.26172e-015
rhumerus -29.9553 -3.36307 -94.3837
rradius 25.5002
rwrist 32.6457
rhand 13.9096 -19.535
rfingers 7.12502
rthumb 38.8243 -45.1052
lclavicle -1.78044e-014 6.26172e-015
lhumerus -35.4845 13.2806 88.1501
lradius 31.2608
lwrist -15.0468
lhand -10.0878 15.1485
lfingers 7.12502
lthumb 15.8991 44.5158
rfemur 2.0192 15.5004 21.456
rtibia 20.6769
rfoot -24.6651 -18.9718
rtoes -9.38938
lfemur -7.48938 -1.31276 -21.4848
ltibia 26.2445
lfoot -24.5018 13.5067
ltoes -10.226
